<svg width="100" height="100" viewBox="0 0 100 100" fill="none" xmlns="http://www.w3.org/2000/svg">
<path d="M41.2929 70.7071L42 71.4142L42.7071 70.7071L78.7071 34.7071L79.4117 34.0025L78.7096 33.2954L73.0696 27.6154L72.3625 26.9033L71.6529 27.6129L41.999 57.2668L28.3461 43.6519L27.639 42.9468L26.9329 43.6529L21.2929 49.2929L20.5858 50L21.2929 50.7071L41.2929 70.7071ZM11 50C11 28.4723 28.4723 11 50 11C71.5277 11 89 28.4723 89 50C89 71.5277 71.5277 89 50 89C28.4723 89 11 71.5277 11 50Z" stroke="#4BB8B5" stroke-width="2"/>
</svg>
