<svg width="100" height="100" viewBox="0 0 100 100" fill="none" xmlns="http://www.w3.org/2000/svg">
<path d="M55.64 83H56.64V82V75.1749C59.924 74.4436 62.9152 73.0984 65.1546 71.0236C67.6018 68.7563 69.0985 65.663 69.12 61.7255V61.72C69.12 56.3331 66.785 52.6596 63.392 50.1015C60.0545 47.5853 55.7096 46.1568 51.6493 45.1116C47.6349 44.0782 45.1228 43.0461 43.6253 41.9365C42.2039 40.8833 41.72 39.7838 41.72 38.44C41.72 36.8722 42.439 35.5266 43.8451 34.5381C45.2782 33.5306 47.4572 32.88 50.32 32.88C53.3319 32.88 55.2169 33.6043 56.3717 34.6851C57.5222 35.762 58.1081 37.343 58.201 39.405L58.244 40.36H59.2H67.04H68.08L68.0392 39.3208C67.7914 33.0008 64.039 27.1375 56.64 25.0293V18V17H55.64H44.96H43.96V18V24.9265C37.188 26.6294 31.52 31.2922 31.52 38.56C31.52 42.9903 33.3797 46.3389 36.5364 48.8568C39.6458 51.3369 43.9935 52.9995 49.0048 54.212L49.0088 54.2129C53.4028 55.2572 55.8728 56.5148 57.2405 57.799C58.5521 59.0305 58.92 60.3526 58.92 61.8C58.92 62.7877 58.565 64.0894 57.389 65.1535C56.2097 66.2207 54.0812 67.16 50.32 67.16C46.7973 67.16 44.4975 66.3698 43.0488 65.2135C41.6187 64.0719 40.8955 62.4757 40.7155 60.5852L40.6293 59.68H39.72H31.88H30.8217L30.8816 60.7366C31.3382 68.7901 37.183 73.4083 43.96 75.0773V82V83H44.96H55.64ZM11 50C11 28.4723 28.4723 11 50 11C71.5277 11 89 28.4723 89 50C89 71.5277 71.5277 89 50 89C28.4723 89 11 71.5277 11 50Z" stroke="#4BB8B5" stroke-width="2"/>
</svg>
