<svg width="100" height="100" viewBox="0 0 100 100" fill="none" xmlns="http://www.w3.org/2000/svg">
<path d="M77.4303 33.6187L76.7506 34.2661L77.3538 34.9854C82.133 40.6842 85 47.8886 85 55.7143C85 74.0506 69.4135 89 50 89C30.5865 89 15 74.0506 15 55.7143C15 37.3787 30.6257 22.4286 50 22.4286C58.2552 22.4286 65.8434 25.1722 71.874 29.7669L72.5522 30.2836L73.1697 29.6956L78.2157 24.8898C79.6979 26.1109 81.0946 27.4569 82.4053 28.8806L77.4303 33.6187ZM46.9402 64.3333L40.1698 75.4504C35.113 73.1759 31.0865 69.2073 28.8896 64.3333H46.9402ZM39 16.619V11H61V16.619H39ZM21 55.7143C21 71.0548 34.0143 83.381 50 83.381C65.9857 83.381 79 71.0548 79 55.7143C79 40.3737 65.9857 28.0476 50 28.0476C34.0143 28.0476 21 40.3737 21 55.7143ZM52.8184 47.0952L59.6478 35.8636C64.7945 38.1248 68.8612 42.1429 71.1055 47.0952H52.8184ZM50 77.5714C48.6425 77.5714 47.326 77.4522 46.0338 77.2278L55.8106 61.1537L62.954 73.7284C59.2562 76.1314 54.8132 77.5714 50 77.5714ZM27 55.7143C27 50.5578 28.9119 45.7947 32.0922 42.0529L43.3456 58.5238H27.2211C27.0895 57.5794 27 56.6528 27 55.7143ZM73 55.7143C73 61.0658 70.9642 65.9914 67.5654 69.7823L57.9965 52.9048H72.7789C72.9105 53.8492 73 54.7757 73 55.7143ZM50 33.8571C51.2631 33.8571 52.4928 33.9699 53.707 34.1574L44.3902 49.4897L36.5381 38.0146C40.3209 35.4226 44.9752 33.8571 50 33.8571Z" stroke="#4BB8B5" stroke-width="2"/>
</svg>
