<svg width="100" height="100" viewBox="0 0 100 100" fill="none" xmlns="http://www.w3.org/2000/svg">
<path d="M43.4554 61.0373L44.1614 61.7384L44.8661 61.0358L63.8814 42.0761L66.7008 44.8759L44.12 67.2997L32.8192 56.0775L35.64 53.2762L43.4554 61.0373ZM67.8555 15.9553L71.721 11.4025L88.5845 25.4548L84.719 30.0076L67.8555 15.9553ZM11.4164 25.4161L28.2752 11.404L32.1073 15.9527L15.2811 29.968L11.4164 25.4161ZM15 54.2503C15 35.0673 30.6657 19.5005 50 19.5005C69.3343 19.5005 85 35.0673 85 54.2503C85 73.4332 69.3343 89 50 89C30.6264 89 15 73.4339 15 54.2503ZM21 54.2503C21 70.1815 33.9743 83.0556 50 83.0556C66.0257 83.0556 79 70.1815 79 54.2503C79 38.319 66.0257 25.4449 50 25.4449C33.9743 25.4449 21 38.319 21 54.2503Z" stroke="#4BB8B5" stroke-width="2"/>
<rect x="0.5" y="0.5" width="99" height="99" stroke="black"/>
<rect x="0.5" y="0.5" width="99" height="99" stroke="url(#paint0_linear)"/>
<defs>
<linearGradient id="paint0_linear" x1="50" y1="0" x2="50" y2="100" gradientUnits="userSpaceOnUse">
<stop stop-color="white"/>
<stop offset="1" stop-color="white" stop-opacity="0"/>
</linearGradient>
</defs>
</svg>
