<svg width="35" height="30" viewBox="0 0 35 30" fill="none" xmlns="http://www.w3.org/2000/svg">
<path d="M1.33375 3.05816L1.33376 3.05817L1.33786 3.05534L3.80896 1.35433C4.12454 1.1371 4.58881 1 5.09938 1C5.61037 1 6.06956 1.13724 6.37748 1.35149L6.37748 1.3515L6.3816 1.35434L16.9221 8.60995L17.4891 9.00026L18.0561 8.60995L28.5965 1.35433C28.9121 1.1371 29.3764 1 29.8869 1C30.3979 1 30.8571 1.13724 31.165 1.35149L31.165 1.35154L31.1743 1.35782L33.6621 3.04782C33.6629 3.04835 33.6637 3.04888 33.6645 3.04942C33.969 3.25987 34 3.44062 34 3.50268C34 3.56383 33.9701 3.74217 33.6662 3.94907L33.6621 3.9519L18.7918 14.188L18.7877 14.1909C18.4727 14.41 18.0097 14.5483 17.4986 14.549C16.9875 14.5497 16.5236 14.4127 16.2082 14.1956L1.33786 3.95943C1.03114 3.74829 1 3.56678 1 3.50456C1 3.44341 1.02993 3.26507 1.33375 3.05816ZM33.6621 17.5064L33.6662 17.5092C33.9701 17.7161 34 17.8944 34 17.9556C34 18.0178 33.9689 18.1993 33.6621 18.4105L18.7918 28.6466C18.4764 28.8637 18.0125 29.0007 17.5014 29C16.9903 28.9993 16.5273 28.861 16.2123 28.6419L16.2082 28.6391L1.33787 18.4029L1.33375 18.4001C1.02993 18.1932 1 18.0149 1 17.9537C1 17.8916 1.03108 17.7103 1.33696 17.4995C1.33726 17.4993 1.33756 17.499 1.33786 17.4988L3.8182 15.799L3.81821 15.799L3.82401 15.795C4.13194 15.5807 4.59113 15.4435 5.10212 15.4435C5.61269 15.4435 6.07695 15.5806 6.39253 15.7978L16.933 23.0535L17.4994 23.4434L18.0662 23.054L28.6176 15.8059L28.6176 15.8059L28.6225 15.8025C28.9304 15.5883 29.3896 15.451 29.9006 15.451C30.4112 15.451 30.8755 15.5881 31.191 15.8054L33.6621 17.5064Z" stroke="#4BB8B5" stroke-width="2"/>
</svg>
