<svg width="20" height="22" viewBox="0 0 20 22" fill="none" xmlns="http://www.w3.org/2000/svg">
<path d="M17.0045 4.37919C15.1339 2.62919 12.6429 1.66669 9.99554 1.66669C4.53125 1.66669 0.0848214 5.81669 0.0848214 10.9167C0.0848214 12.5459 0.540179 14.1375 1.40625 15.5417L0 20.3334L5.25446 19.0459C6.70089 19.7834 8.33036 20.1709 9.99107 20.1709H9.99554C15.4554 20.1709 20 16.0209 20 10.9209C20 8.45002 18.875 6.12919 17.0045 4.37919ZM9.99554 18.6125C8.51339 18.6125 7.0625 18.2417 5.79911 17.5417L5.5 17.375L2.38393 18.1375L3.21429 15.3L3.01786 15.0084C2.19196 13.7834 1.75893 12.3709 1.75893 10.9167C1.75893 6.67919 5.45536 3.22919 10 3.22919C12.2009 3.22919 14.2679 4.02919 15.8214 5.48335C17.375 6.93752 18.3304 8.86669 18.3259 10.9209C18.3259 15.1625 14.5357 18.6125 9.99554 18.6125ZM14.5134 12.8542C14.2679 12.7375 13.0491 12.1792 12.8214 12.1042C12.5938 12.025 12.4286 11.9875 12.2634 12.2209C12.0982 12.4542 11.625 12.9709 11.4777 13.1292C11.3348 13.2834 11.1875 13.3042 10.942 13.1875C9.48661 12.5084 8.53125 11.975 7.57143 10.4375C7.31696 10.0292 7.82589 10.0584 8.29911 9.17502C8.37946 9.02085 8.33929 8.88752 8.27679 8.77085C8.21429 8.65419 7.71875 7.51669 7.51339 7.05419C7.3125 6.60419 7.10714 6.66669 6.95536 6.65835C6.8125 6.65002 6.64732 6.65002 6.48214 6.65002C6.31696 6.65002 6.04911 6.70835 5.82143 6.93752C5.59375 7.17085 4.95536 7.72919 4.95536 8.86669C4.95536 10.0042 5.84375 11.1042 5.96429 11.2584C6.08929 11.4125 7.70982 13.7459 10.1964 14.75C11.7679 15.3834 12.3839 15.4375 13.1696 15.3292C13.6473 15.2625 14.6339 14.7709 14.8393 14.2292C15.0446 13.6875 15.0446 13.225 14.9821 13.1292C14.9241 13.025 14.7589 12.9667 14.5134 12.8542Z" fill="white"/>
</svg>
